<mxfile host="app.diagrams.net" agent="Mozilla/5.0 (Windows NT 10.0; Win64; x64) AppleWebKit/537.36 (KHTML, like Gecko) Chrome/129.0.0.0 Safari/537.36" version="24.7.17">
  <diagram name="Page-1" id="8cQ6dlYZiLXwl3r9tG7y">
    <mxGraphModel dx="1134" dy="637" grid="1" gridSize="10" guides="1" tooltips="1" connect="1" arrows="1" fold="1" page="1" pageScale="1" pageWidth="850" pageHeight="1100" math="0" shadow="0">
      <root>
        <mxCell id="0" />
        <mxCell id="1" parent="0" />
        <mxCell id="YbHaQcUzP9_vanoCLiuY-2" value="" style="group" parent="1" vertex="1" connectable="0">
          <mxGeometry x="80" y="40" width="690" height="180" as="geometry" />
        </mxCell>
        <mxCell id="YbHaQcUzP9_vanoCLiuY-3" value="" style="rounded=0;whiteSpace=wrap;html=1;" parent="YbHaQcUzP9_vanoCLiuY-2" vertex="1">
          <mxGeometry width="440" height="180" as="geometry" />
        </mxCell>
        <mxCell id="YbHaQcUzP9_vanoCLiuY-4" style="edgeStyle=orthogonalEdgeStyle;rounded=0;orthogonalLoop=1;jettySize=auto;html=1;" parent="YbHaQcUzP9_vanoCLiuY-2" source="YbHaQcUzP9_vanoCLiuY-5" edge="1">
          <mxGeometry relative="1" as="geometry">
            <mxPoint x="610" y="63" as="targetPoint" />
          </mxGeometry>
        </mxCell>
        <mxCell id="YbHaQcUzP9_vanoCLiuY-5" value="" style="fontColor=#0066CC;verticalAlign=top;verticalLabelPosition=bottom;labelPosition=center;align=center;html=1;outlineConnect=0;fillColor=#CCCCCC;strokeColor=#6881B3;gradientColor=none;gradientDirection=north;strokeWidth=2;shape=mxgraph.networks.wireless_modem;" parent="YbHaQcUzP9_vanoCLiuY-2" vertex="1">
          <mxGeometry x="395" y="20" width="100" height="85" as="geometry" />
        </mxCell>
        <mxCell id="YbHaQcUzP9_vanoCLiuY-6" style="edgeStyle=orthogonalEdgeStyle;rounded=0;orthogonalLoop=1;jettySize=auto;html=1;" parent="YbHaQcUzP9_vanoCLiuY-2" source="YbHaQcUzP9_vanoCLiuY-7" target="YbHaQcUzP9_vanoCLiuY-5" edge="1">
          <mxGeometry relative="1" as="geometry" />
        </mxCell>
        <mxCell id="YbHaQcUzP9_vanoCLiuY-7" value="" style="sketch=0;aspect=fixed;pointerEvents=1;shadow=0;dashed=0;html=1;strokeColor=none;labelPosition=center;verticalLabelPosition=bottom;verticalAlign=top;align=center;fillColor=#00188D;shape=mxgraph.azure.laptop" parent="YbHaQcUzP9_vanoCLiuY-2" vertex="1">
          <mxGeometry x="268" y="140" width="50" height="30" as="geometry" />
        </mxCell>
        <mxCell id="YbHaQcUzP9_vanoCLiuY-8" style="edgeStyle=orthogonalEdgeStyle;rounded=0;orthogonalLoop=1;jettySize=auto;html=1;" parent="YbHaQcUzP9_vanoCLiuY-2" source="YbHaQcUzP9_vanoCLiuY-9" edge="1">
          <mxGeometry relative="1" as="geometry">
            <mxPoint x="350" y="60" as="targetPoint" />
          </mxGeometry>
        </mxCell>
        <mxCell id="YbHaQcUzP9_vanoCLiuY-9" value="" style="html=1;verticalLabelPosition=bottom;align=center;labelBackgroundColor=#ffffff;verticalAlign=top;strokeWidth=2;strokeColor=#0080F0;shadow=0;dashed=0;shape=mxgraph.ios7.icons.smartphone;" parent="YbHaQcUzP9_vanoCLiuY-2" vertex="1">
          <mxGeometry x="110" y="110" width="40" height="50" as="geometry" />
        </mxCell>
        <mxCell id="YbHaQcUzP9_vanoCLiuY-10" style="edgeStyle=orthogonalEdgeStyle;rounded=0;orthogonalLoop=1;jettySize=auto;html=1;" parent="YbHaQcUzP9_vanoCLiuY-2" source="YbHaQcUzP9_vanoCLiuY-11" target="YbHaQcUzP9_vanoCLiuY-5" edge="1">
          <mxGeometry relative="1" as="geometry" />
        </mxCell>
        <mxCell id="YbHaQcUzP9_vanoCLiuY-11" value="" style="image;aspect=fixed;html=1;points=[];align=center;fontSize=12;image=img/lib/azure2/management_governance/Managed_Desktop.svg;" parent="YbHaQcUzP9_vanoCLiuY-2" vertex="1">
          <mxGeometry x="200" y="13.399999999999977" width="68" height="63.2" as="geometry" />
        </mxCell>
        <mxCell id="YbHaQcUzP9_vanoCLiuY-12" value="&lt;b&gt;ISP&lt;/b&gt;" style="whiteSpace=wrap;html=1;aspect=fixed;" parent="YbHaQcUzP9_vanoCLiuY-2" vertex="1">
          <mxGeometry x="610" y="22.5" width="80" height="80" as="geometry" />
        </mxCell>
        <mxCell id="YbHaQcUzP9_vanoCLiuY-13" value="&lt;b&gt;49.204.198.60&lt;/b&gt;" style="text;html=1;align=center;verticalAlign=middle;resizable=0;points=[];autosize=1;strokeColor=none;fillColor=none;" parent="YbHaQcUzP9_vanoCLiuY-2" vertex="1">
          <mxGeometry x="500" y="90" width="100" height="30" as="geometry" />
        </mxCell>
        <mxCell id="YbHaQcUzP9_vanoCLiuY-14" value="" style="group" parent="1" vertex="1" connectable="0">
          <mxGeometry x="340" y="280" width="190" height="190" as="geometry" />
        </mxCell>
        <mxCell id="YbHaQcUzP9_vanoCLiuY-15" value="" style="whiteSpace=wrap;html=1;aspect=fixed;" parent="YbHaQcUzP9_vanoCLiuY-14" vertex="1">
          <mxGeometry width="190" height="190" as="geometry" />
        </mxCell>
        <mxCell id="YbHaQcUzP9_vanoCLiuY-16" value="" style="endArrow=none;html=1;rounded=0;entryX=0.5;entryY=0;entryDx=0;entryDy=0;exitX=0.5;exitY=1;exitDx=0;exitDy=0;" parent="YbHaQcUzP9_vanoCLiuY-14" source="YbHaQcUzP9_vanoCLiuY-15" target="YbHaQcUzP9_vanoCLiuY-15" edge="1">
          <mxGeometry width="50" height="50" relative="1" as="geometry">
            <mxPoint x="40" y="20" as="sourcePoint" />
            <mxPoint x="90" y="-30" as="targetPoint" />
          </mxGeometry>
        </mxCell>
        <mxCell id="YbHaQcUzP9_vanoCLiuY-17" value="&lt;b&gt;Private&lt;/b&gt;" style="text;html=1;align=center;verticalAlign=middle;resizable=0;points=[];autosize=1;strokeColor=none;fillColor=none;" parent="YbHaQcUzP9_vanoCLiuY-14" vertex="1">
          <mxGeometry x="20" y="80" width="60" height="30" as="geometry" />
        </mxCell>
        <mxCell id="YbHaQcUzP9_vanoCLiuY-18" value="&lt;b&gt;Public&lt;/b&gt;" style="text;html=1;align=center;verticalAlign=middle;resizable=0;points=[];autosize=1;strokeColor=none;fillColor=none;" parent="YbHaQcUzP9_vanoCLiuY-14" vertex="1">
          <mxGeometry x="115" y="80" width="60" height="30" as="geometry" />
        </mxCell>
        <mxCell id="4ydImCn3m8MwllgCUGlb-1" value="" style="group" vertex="1" connectable="0" parent="1">
          <mxGeometry x="160" y="520" width="567" height="150" as="geometry" />
        </mxCell>
        <mxCell id="4ydImCn3m8MwllgCUGlb-2" style="edgeStyle=orthogonalEdgeStyle;rounded=0;orthogonalLoop=1;jettySize=auto;html=1;" edge="1" parent="4ydImCn3m8MwllgCUGlb-1" source="4ydImCn3m8MwllgCUGlb-3">
          <mxGeometry relative="1" as="geometry">
            <mxPoint x="203.5" y="80" as="targetPoint" />
          </mxGeometry>
        </mxCell>
        <mxCell id="4ydImCn3m8MwllgCUGlb-3" value="" style="html=1;verticalLabelPosition=bottom;align=center;labelBackgroundColor=#ffffff;verticalAlign=top;strokeWidth=2;strokeColor=#0080F0;shadow=0;dashed=0;shape=mxgraph.ios7.icons.smartphone;" vertex="1" parent="4ydImCn3m8MwllgCUGlb-1">
          <mxGeometry y="10" width="82" height="140" as="geometry" />
        </mxCell>
        <mxCell id="4ydImCn3m8MwllgCUGlb-4" style="edgeStyle=orthogonalEdgeStyle;rounded=0;orthogonalLoop=1;jettySize=auto;html=1;" edge="1" parent="4ydImCn3m8MwllgCUGlb-1" source="4ydImCn3m8MwllgCUGlb-5" target="4ydImCn3m8MwllgCUGlb-6">
          <mxGeometry relative="1" as="geometry" />
        </mxCell>
        <mxCell id="4ydImCn3m8MwllgCUGlb-5" value="" style="html=1;strokeWidth=1;shadow=0;dashed=0;shape=mxgraph.ios7.misc.vpn;fillColor=#007AFF;strokeColor=none;buttonText=;strokeColor2=#222222;fontColor=#222222;fontSize=8;verticalLabelPosition=bottom;verticalAlign=top;align=center;sketch=0;" vertex="1" parent="4ydImCn3m8MwllgCUGlb-1">
          <mxGeometry x="213.5" y="50" width="100" height="60" as="geometry" />
        </mxCell>
        <mxCell id="4ydImCn3m8MwllgCUGlb-6" value="&lt;b&gt;OTT&lt;/b&gt;" style="ellipse;shape=cloud;whiteSpace=wrap;html=1;" vertex="1" parent="4ydImCn3m8MwllgCUGlb-1">
          <mxGeometry x="453.5" y="40" width="120" height="80" as="geometry" />
        </mxCell>
        <mxCell id="4ydImCn3m8MwllgCUGlb-7" value="&lt;b&gt;accessing restricted content&lt;/b&gt;" style="text;html=1;align=center;verticalAlign=middle;resizable=0;points=[];autosize=1;strokeColor=none;fillColor=none;" vertex="1" parent="4ydImCn3m8MwllgCUGlb-1">
          <mxGeometry x="162" width="190" height="30" as="geometry" />
        </mxCell>
        <mxCell id="4ydImCn3m8MwllgCUGlb-8" value="" style="group" vertex="1" connectable="0" parent="1">
          <mxGeometry x="120" y="720" width="655" height="220" as="geometry" />
        </mxCell>
        <mxCell id="4ydImCn3m8MwllgCUGlb-9" value="" style="rounded=0;whiteSpace=wrap;html=1;" vertex="1" parent="4ydImCn3m8MwllgCUGlb-8">
          <mxGeometry width="460" height="220" as="geometry" />
        </mxCell>
        <mxCell id="4ydImCn3m8MwllgCUGlb-10" style="edgeStyle=orthogonalEdgeStyle;rounded=0;orthogonalLoop=1;jettySize=auto;html=1;" edge="1" parent="4ydImCn3m8MwllgCUGlb-8" source="4ydImCn3m8MwllgCUGlb-11" target="4ydImCn3m8MwllgCUGlb-13">
          <mxGeometry relative="1" as="geometry" />
        </mxCell>
        <mxCell id="4ydImCn3m8MwllgCUGlb-11" value="" style="sketch=0;aspect=fixed;pointerEvents=1;shadow=0;dashed=0;html=1;strokeColor=none;labelPosition=center;verticalLabelPosition=bottom;verticalAlign=top;align=center;fillColor=#00188D;shape=mxgraph.azure.laptop" vertex="1" parent="4ydImCn3m8MwllgCUGlb-8">
          <mxGeometry x="34" y="50" width="150" height="90" as="geometry" />
        </mxCell>
        <mxCell id="4ydImCn3m8MwllgCUGlb-12" style="edgeStyle=orthogonalEdgeStyle;rounded=0;orthogonalLoop=1;jettySize=auto;html=1;" edge="1" parent="4ydImCn3m8MwllgCUGlb-8" source="4ydImCn3m8MwllgCUGlb-13">
          <mxGeometry relative="1" as="geometry">
            <mxPoint x="540" y="95" as="targetPoint" />
          </mxGeometry>
        </mxCell>
        <mxCell id="4ydImCn3m8MwllgCUGlb-13" value="" style="sketch=0;points=[[0.015,0.015,0],[0.985,0.015,0],[0.985,0.985,0],[0.015,0.985,0],[0.25,0,0],[0.5,0,0],[0.75,0,0],[1,0.25,0],[1,0.5,0],[1,0.75,0],[0.75,1,0],[0.5,1,0],[0.25,1,0],[0,0.75,0],[0,0.5,0],[0,0.25,0]];verticalLabelPosition=bottom;html=1;verticalAlign=top;aspect=fixed;align=center;pointerEvents=1;shape=mxgraph.cisco19.rect;prIcon=virtual_private_network;fillColor=#FAFAFA;strokeColor=#005073;" vertex="1" parent="4ydImCn3m8MwllgCUGlb-8">
          <mxGeometry x="290" y="25" width="140" height="140" as="geometry" />
        </mxCell>
        <mxCell id="4ydImCn3m8MwllgCUGlb-14" value="&lt;b&gt;Company&lt;/b&gt;" style="text;html=1;align=center;verticalAlign=middle;resizable=0;points=[];autosize=1;strokeColor=none;fillColor=none;" vertex="1" parent="4ydImCn3m8MwllgCUGlb-8">
          <mxGeometry x="165" width="80" height="30" as="geometry" />
        </mxCell>
        <mxCell id="4ydImCn3m8MwllgCUGlb-15" value="&lt;b&gt;Internet&lt;/b&gt;" style="ellipse;shape=cloud;whiteSpace=wrap;html=1;" vertex="1" parent="4ydImCn3m8MwllgCUGlb-8">
          <mxGeometry x="535" y="55" width="120" height="80" as="geometry" />
        </mxCell>
      </root>
    </mxGraphModel>
  </diagram>
</mxfile>
